<svg width="36" height="36" viewBox="0 0 36 36" fill="none" xmlns="http://www.w3.org/2000/svg">
<path d="M18.0001 2.00084C13.6703 1.95685 9.50014 3.63376 6.40617 6.66303C3.31221 9.69231 1.54757 13.8261 1.50008 18.1558C1.51676 21.5776 2.61749 24.906 4.64417 27.6631C6.67085 30.4201 9.51919 32.4639 12.7801 33.5008C13.6051 33.6508 13.9051 33.1558 13.9051 32.7208C13.9051 32.2858 13.9051 31.3258 13.9051 29.9758C9.31508 30.9508 8.34008 27.8158 8.34008 27.8158C8.03452 26.8317 7.38492 25.9904 6.51008 25.4458C5.01008 24.4558 6.63008 24.4708 6.63008 24.4708C7.14855 24.5402 7.64461 24.726 8.08104 25.0143C8.51747 25.3027 8.88295 25.6861 9.15008 26.1358C9.61557 26.943 10.3794 27.5352 11.2771 27.7849C12.1748 28.0345 13.1347 27.9218 13.9501 27.4708C14.0339 26.6494 14.4059 25.8842 15.0001 25.3108C11.3401 24.9058 7.50008 23.5258 7.50008 17.3308C7.46735 15.7149 8.06444 14.1495 9.16508 12.9658C8.66382 11.5784 8.723 10.0503 9.33008 8.70584C9.33008 8.70584 10.7251 8.27084 13.8301 10.3558C16.5329 9.6356 19.3772 9.6356 22.0801 10.3558C25.2301 8.27084 26.5801 8.70584 26.5801 8.70584C27.1871 10.0503 27.2463 11.5784 26.7451 12.9658C27.8713 14.1278 28.5008 15.6827 28.5001 17.3008C28.5001 23.5108 24.6301 24.8758 21.0001 25.2808C21.3976 25.6667 21.7046 26.1359 21.8991 26.6546C22.0936 27.1734 22.1708 27.7287 22.1251 28.2808V32.7058C22.1251 32.7058 22.4251 33.6508 23.2501 33.4858C26.5017 32.4424 29.3405 30.3982 31.3609 27.6451C33.3813 24.8919 34.48 21.5707 34.5001 18.1558C34.4526 13.8261 32.6879 9.69231 29.594 6.66303C26.5 3.63376 22.3299 1.95685 18.0001 2.00084Z" fill="white"/>
</svg>
