<?xml version="1.0" standalone="no"?>
<!DOCTYPE svg PUBLIC "-//W3C//DTD SVG 20010904//EN"
 "http://www.w3.org/TR/2001/REC-SVG-20010904/DTD/svg10.dtd">
<svg version="1.0" xmlns="http://www.w3.org/2000/svg"
 width="181.000000pt" height="171.000000pt" viewBox="0 0 181.000000 171.000000"
 preserveAspectRatio="xMidYMid meet">

<g transform="translate(0.000000,171.000000) scale(0.100000,-0.100000)"
fill="#000000" stroke="none">
<path d="M795 1679 c-33 -5 -103 -23 -156 -40 -335 -107 -545 -393 -566 -769
-13 -233 60 -418 236 -603 109 -114 277 -217 355 -217 31 0 36 15 36 110 l0
78 -77 1 c-106 1 -157 27 -198 100 -16 30 -52 78 -80 108 -40 44 -46 56 -35
63 8 6 21 10 28 10 31 0 90 -42 125 -89 59 -81 136 -109 210 -77 25 10 36 24
50 66 10 28 17 53 15 54 -2 1 -34 9 -71 19 -89 22 -127 40 -180 87 -122 107
-151 368 -56 501 18 26 20 39 15 87 -3 34 0 80 7 112 l13 55 45 -1 c30 -1 70
-14 119 -39 71 -36 74 -36 135 -26 80 14 198 14 285 0 l69 -12 72 38 c49 25
87 37 117 39 l46 1 13 -45 c10 -30 12 -67 8 -111 -6 -62 -4 -70 24 -114 39
-61 55 -141 47 -232 -9 -107 -39 -178 -105 -243 -48 -48 -68 -60 -138 -83 -45
-15 -94 -27 -107 -27 l-26 0 23 -42 c20 -38 22 -60 25 -203 2 -92 8 -165 14
-172 17 -21 52 -15 125 18 131 61 266 172 340 279 51 75 101 184 125 272 30
108 32 318 5 417 -42 156 -99 259 -204 371 -190 203 -457 298 -728 259z"/>
<path d="M480 361 c0 -5 5 -13 10 -16 6 -3 10 -2 10 4 0 5 -4 13 -10 16 -5 3
-10 2 -10 -4z"/>
<path d="M538 323 c6 -2 18 -2 25 0 6 3 1 5 -13 5 -14 0 -19 -2 -12 -5z"/>
<path d="M602 321 c2 -7 7 -12 11 -12 12 1 9 15 -3 20 -7 2 -11 -2 -8 -8z"/>
<path d="M670 320 c0 -5 5 -10 10 -10 6 0 10 5 10 10 0 6 -4 10 -10 10 -5 0
-10 -4 -10 -10z"/>
</g>
</svg>
