<svg width="18" height="18" viewBox="0 0 18 18" fill="none" xmlns="http://www.w3.org/2000/svg">
<path d="M13.95 2.7H4.95001C4.35328 2.7 3.78098 2.93705 3.35902 3.35901C2.93707 3.78096 2.70001 4.35326 2.70001 4.95V13.95C2.70001 14.5467 2.93707 15.119 3.35902 15.541C3.78098 15.9629 4.35328 16.2 4.95001 16.2H13.95C14.1489 16.2 14.3397 16.121 14.4803 15.9803C14.621 15.8397 14.7 15.6489 14.7 15.45V3.45C14.7 3.25108 14.621 3.06032 14.4803 2.91967C14.3397 2.77901 14.1489 2.7 13.95 2.7ZM4.95001 4.2H13.2V11.7H4.95001C4.69415 11.702 4.44052 11.7477 4.20001 11.835V4.95C4.20001 4.75108 4.27903 4.56032 4.41968 4.41967C4.56033 4.27901 4.7511 4.2 4.95001 4.2ZM4.95001 14.7C4.7511 14.7 4.56033 14.621 4.41968 14.4803C4.27903 14.3397 4.20001 14.1489 4.20001 13.95C4.20001 13.7511 4.27903 13.5603 4.41968 13.4197C4.56033 13.279 4.7511 13.2 4.95001 13.2H13.2V14.7H4.95001Z" fill="#8B949E"/>
</svg>
