<svg width="18" height="18" viewBox="0 0 18 18" fill="none" xmlns="http://www.w3.org/2000/svg">
<path d="M13.4427 16.0531C13.3228 16.0536 13.2045 16.0253 13.0977 15.9706L9.27271 13.9681L5.44771 15.9706C5.3235 16.0359 5.18347 16.0651 5.04352 16.0547C4.90357 16.0444 4.76932 15.995 4.65603 15.9122C4.54274 15.8294 4.45497 15.7165 4.40267 15.5863C4.35038 15.456 4.33567 15.3138 4.36021 15.1756L5.11021 10.9531L2.02021 7.95308C1.9238 7.85688 1.85541 7.73624 1.82238 7.60411C1.78935 7.47197 1.79292 7.33334 1.83271 7.20309C1.87618 7.06979 1.95614 6.95135 2.06352 6.8612C2.1709 6.77106 2.3014 6.71282 2.44021 6.69309L6.71521 6.07059L8.59771 2.22309C8.65912 2.09628 8.75501 1.98934 8.87439 1.91452C8.99377 1.83969 9.13182 1.8 9.27271 1.8C9.4136 1.8 9.55165 1.83969 9.67103 1.91452C9.79041 1.98934 9.8863 2.09628 9.94771 2.22309L11.8527 6.06309L16.1277 6.68559C16.2665 6.70532 16.397 6.76356 16.5044 6.8537C16.6118 6.94385 16.6917 7.06229 16.7352 7.19559C16.775 7.32584 16.7786 7.46447 16.7455 7.59661C16.7125 7.72874 16.6441 7.84938 16.5477 7.94558L13.4577 10.9456L14.2077 15.1681C14.2345 15.3087 14.2205 15.454 14.1673 15.5869C14.1141 15.7198 14.0241 15.8347 13.9077 15.9181C13.7719 16.0133 13.6084 16.0607 13.4427 16.0531ZM9.27271 12.3781C9.39293 12.375 9.51186 12.4035 9.61771 12.4606L12.4452 13.9606L11.9052 10.8031C11.8843 10.6825 11.8931 10.5587 11.931 10.4423C11.9689 10.326 12.0348 10.2207 12.1227 10.1356L14.3727 7.93809L11.2227 7.47309C11.1072 7.44983 10.9988 7.39968 10.9063 7.32671C10.8138 7.25374 10.7397 7.16 10.6902 7.05309L9.27271 4.24059L7.85521 7.05309C7.80095 7.16086 7.72148 7.25396 7.62355 7.32446C7.52563 7.39497 7.41213 7.44081 7.29271 7.45809L4.14271 7.92309L6.39271 10.1206C6.48067 10.2057 6.54647 10.311 6.58438 10.4273C6.62229 10.5437 6.63116 10.6675 6.61021 10.7881L6.07021 13.9081L8.89771 12.4081C9.01752 12.3635 9.14734 12.3532 9.27271 12.3781Z" fill="#8B949E"/>
</svg>
