<svg width="18" height="18" viewBox="0 0 18 18" fill="none" xmlns="http://www.w3.org/2000/svg">
<path d="M2.70001 3.4875C2.70001 3.27864 2.78298 3.07834 2.93067 2.93065C3.07835 2.78297 3.27865 2.7 3.48751 2.7H14.5125C14.7214 2.7 14.9217 2.78297 15.0694 2.93065C15.217 3.07834 15.3 3.27864 15.3 3.4875V5.0625C15.3 5.27136 15.217 5.47166 15.0694 5.61934C14.9217 5.76703 14.7214 5.85 14.5125 5.85H3.48751C3.27865 5.85 3.07835 5.76703 2.93067 5.61934C2.78298 5.47166 2.70001 5.27136 2.70001 5.0625V3.4875ZM2.70001 9.7875C2.70001 9.57864 2.78298 9.37834 2.93067 9.23065C3.07835 9.08297 3.27865 9 3.48751 9H8.21251C8.42137 9 8.62167 9.08297 8.76936 9.23065C8.91704 9.37834 9.00001 9.57864 9.00001 9.7875V14.5125C9.00001 14.7214 8.91704 14.9217 8.76936 15.0693C8.62167 15.217 8.42137 15.3 8.21251 15.3H3.48751C3.27865 15.3 3.07835 15.217 2.93067 15.0693C2.78298 14.9217 2.70001 14.7214 2.70001 14.5125V9.7875ZM12.15 9.7875C12.15 9.57864 12.233 9.37834 12.3807 9.23065C12.5284 9.08297 12.7287 9 12.9375 9H14.5125C14.7214 9 14.9217 9.08297 15.0694 9.23065C15.217 9.37834 15.3 9.57864 15.3 9.7875V14.5125C15.3 14.7214 15.217 14.9217 15.0694 15.0693C14.9217 15.217 14.7214 15.3 14.5125 15.3H12.9375C12.7287 15.3 12.5284 15.217 12.3807 15.0693C12.233 14.9217 12.15 14.7214 12.15 14.5125V9.7875Z" stroke="#8B949E" stroke-width="1.6" stroke-linecap="round" stroke-linejoin="round"/>
</svg>
