<svg width="18" height="18" viewBox="0 0 18 18" fill="none" xmlns="http://www.w3.org/2000/svg">
<path d="M11.925 7.34846L5.17499 3.45596" stroke="#8B949E" stroke-width="1.6" stroke-linecap="round" stroke-linejoin="round"/>
<path d="M15.3 12.2985V6.29846C15.2997 6.03542 15.2303 5.77707 15.0986 5.54934C14.967 5.3216 14.7778 5.13249 14.55 5.00096L9.29999 2.00096C9.07196 1.86931 8.81329 1.8 8.54999 1.8C8.28668 1.8 8.02802 1.86931 7.79999 2.00096L2.54999 5.00096C2.32218 5.13249 2.13297 5.3216 2.00133 5.54934C1.86969 5.77707 1.80026 6.03542 1.79999 6.29846V12.2985C1.80026 12.5615 1.86969 12.8199 2.00133 13.0476C2.13297 13.2753 2.32218 13.4644 2.54999 13.596L7.79999 16.596C8.02802 16.7276 8.28668 16.7969 8.54999 16.7969C8.81329 16.7969 9.07196 16.7276 9.29999 16.596L14.55 13.596C14.7778 13.4644 14.967 13.2753 15.0986 13.0476C15.2303 12.8199 15.2997 12.5615 15.3 12.2985Z" stroke="#8B949E" stroke-width="1.6" stroke-linecap="round" stroke-linejoin="round"/>
<path d="M2.0025 5.51846L8.55 9.30596L15.0975 5.51846" stroke="#8B949E" stroke-width="1.6" stroke-linecap="round" stroke-linejoin="round"/>
<path d="M8.54999 16.8585V9.29845" stroke="#8B949E" stroke-width="1.6" stroke-linecap="round" stroke-linejoin="round"/>
</svg>
